<svg width="67" height="53" viewBox="0 0 67 53" fill="none" xmlns="http://www.w3.org/2000/svg">
<circle cx="34" cy="28" r="25" fill="#68B738"/>
<g clip-path="url(#clip0)">
<path d="M44.2034 0H44.008C43.6778 0.187081 43.415 0.473924 43.2571 0.819588C42.968 1.37738 42.7453 1.96735 42.5937 2.57732C42.5612 2.76073 42.4688 2.92811 42.331 3.05315C42.1932 3.17818 42.0179 3.25377 41.8326 3.26804C41.2658 3.36597 40.7288 3.59243 40.2626 3.93012C39.7965 4.26781 39.4135 4.7078 39.1429 5.21649C38.7708 5.87697 38.4526 6.5665 38.1914 7.27835C37.4611 9.17526 36.9006 11.134 36.2114 13.0464C35.8874 13.9175 35.872 13.9175 34.8949 13.9175C33.7274 13.9175 33.8097 13.7371 33.7943 15.0258C33.7943 15.433 33.9177 15.6392 34.3497 15.6186C34.4834 15.6186 34.684 15.5515 34.7354 15.7268C34.7869 15.9021 34.612 15.9794 34.5091 16.0825C33.8994 16.7029 33.1276 17.1388 32.2823 17.3402C31.3051 17.6031 30.3074 17.8093 29.356 18.1289C26.9131 18.9485 24.6554 20.0928 22.8966 22.0309C21.8681 23.2347 21.0445 24.6001 20.4589 26.0722C18.5714 30.5258 17.656 35.2165 16.9463 39.9536C16.612 42.1753 16.3754 44.4072 16.1954 46.6546C16.1029 47.7577 16 48.8763 16 50H33.1411C33.1696 49.7731 33.1283 49.5429 33.0229 49.3402C32.858 48.9289 32.5901 48.5672 32.2451 48.29C31.9 48.0128 31.4895 47.8295 31.0531 47.7577C30.6931 47.6753 30.652 47.567 30.8731 47.2835C31.2338 46.801 31.5103 46.2607 31.6909 45.6856C32.5291 43.2062 32.8531 40.6186 33.2594 38.0567C33.4889 36.0999 34.0894 34.2051 35.0286 32.4742C35.7611 31.2002 36.7382 30.0842 37.9034 29.1907C38.3303 28.866 38.3457 28.866 38.4177 29.4175C38.4691 29.7835 38.4794 30.1598 38.5051 30.5309C38.6595 32.9662 38.6285 35.4097 38.4126 37.8402C38.2184 39.7242 38.1926 41.6217 38.3354 43.5103C38.5399 45.7029 38.9304 47.8739 39.5029 50H46.3429C46.2536 49.442 45.9973 48.9243 45.6078 48.5156C45.2184 48.1069 44.7143 47.8264 44.1623 47.7113C43.5177 47.6087 42.8587 47.6438 42.2286 47.8144C41.92 47.8866 41.7914 47.8144 41.7657 47.4794C41.5529 44.7505 41.7261 42.0051 42.28 39.3247C42.966 36.2304 43.4912 33.1025 43.8537 29.9536C43.9887 28.6819 44.3881 27.4528 45.0263 26.3454C45.6383 25.2526 46.1731 24.1186 46.7749 23.0206C47.0138 22.6214 47.1575 22.1723 47.195 21.7083C47.2325 21.2443 47.1626 20.7779 46.9909 20.3454C46.852 19.9794 46.7183 19.6082 46.5486 19.2577C46.0343 18.2526 45.52 17.2577 45.0469 16.2423C44.7949 15.7268 44.8514 15.6649 45.412 15.6495C46.2503 15.6495 46.2503 15.6495 46.2657 14.8041C46.2657 14.6907 46.2657 14.5773 46.2657 14.4639C46.2657 14.1082 46.132 13.9124 45.7514 13.9485C45.4943 13.9485 45.2371 13.9485 44.9697 13.9485C44.6149 13.9485 44.512 13.799 44.5994 13.433C44.7729 12.838 45.1142 12.306 45.5823 11.9009C46.0503 11.4958 46.6252 11.2349 47.2377 11.1495C48.3772 11.0505 49.5251 11.1252 50.6423 11.3711C50.7712 11.4118 50.9109 11.4001 51.0312 11.3383C51.1515 11.2766 51.2427 11.1699 51.2851 11.0412C51.4909 10.5258 51.7171 10.0103 51.9486 9.49484C52.001 9.40339 52.0242 9.29801 52.015 9.19293C52.0058 9.08785 51.9647 8.98812 51.8971 8.90722C50.2514 6.81443 48.4669 4.86082 46.0343 3.60825C45.9168 3.55754 45.8138 3.47814 45.7347 3.3773C45.6557 3.27646 45.6031 3.15738 45.5817 3.03093C45.444 2.29408 45.225 1.57487 44.9286 0.886598C44.7895 0.519904 44.5349 0.20865 44.2034 0V0Z" fill="black"/>
</g>
<defs>
<clipPath id="clip0">
<rect width="36" height="50" fill="white" transform="translate(16)"/>
</clipPath>
</defs>
</svg>
