<svg width="67" height="53" viewBox="0 0 67 53" fill="none" xmlns="http://www.w3.org/2000/svg">
<circle cx="34.5" cy="27" r="25" fill="#68B738"/>
<g clip-path="url(#clip0)">
<path d="M61.55 15.9C62.1272 14.9815 62.8944 14.1973 63.8 13.6C64.3 13.25 64.6 13.25 64.9 13.9C65.3 14.85 65.65 15.85 65.35 16.9C65.2954 17.0781 65.2851 17.2668 65.3199 17.4497C65.3548 17.6327 65.4338 17.8044 65.55 17.95C65.85 18.35 66.1 18.75 66.35 19.1C66.6902 19.5319 66.9109 20.0456 66.9899 20.5897C67.0689 21.1339 67.0034 21.6892 66.8 22.2C66.6164 22.6959 66.5817 23.2346 66.7 23.75C66.7999 24.245 66.7999 24.755 66.7 25.25C66.6596 25.6207 66.5095 25.9709 66.2691 26.2559C66.0286 26.5409 65.7086 26.7478 65.35 26.85C64.7104 26.9717 64.1396 27.3284 63.75 27.85C63.7028 27.9268 63.6365 27.9901 63.5577 28.0339C63.4789 28.0777 63.3901 28.1005 63.3 28.1C62.7 28.2 61.2 26.85 61.2 26.25V25.95C61.25 24.15 61.15 24 59.5 23.25C59.1546 23.1282 58.8452 22.9219 58.6 22.65C58.3 22.25 57.9 22.3 57.45 22.45C57 22.6 56.75 22.9 56.8 23.4C56.9508 24.6104 57.0009 25.8313 56.95 27.05C56.9533 27.1891 56.9875 27.3257 57.05 27.45C58.6 29.7 59.2 32.35 59.95 34.9C60.55 36.85 61.65 37.9 63.65 38.05C63.97 38.0755 64.2876 38.1257 64.6 38.2C65.0109 38.266 65.3926 38.4538 65.6956 38.739C65.9987 39.0242 66.2092 39.3938 66.3 39.8C66.65 40.85 66.45 41.1 65.4 41.1H62.15C61.7292 41.1213 61.3167 40.9778 61 40.7C60.4939 40.2729 59.9191 39.9348 59.3 39.7C58.6155 39.4473 58.0231 38.9943 57.6 38.4C57.0143 37.5817 56.3439 36.8275 55.6 36.15C54.2 34.7 52.7 33.3 51.4 31.8C50.4103 30.7779 49.8395 29.4221 49.8 28C49.8 27.55 49.7 27.35 49.2 27.55C49.0503 27.645 48.8773 27.6969 48.7 27.7C47.3 27.7 46.6 28.55 46.1 29.8C45.65 30.85 45.05 31.85 44.5 32.9C44.1881 33.5572 44.0178 34.2727 44 35C44 36.2 44.3 36.6 45.4 37C46.1 37.25 46.75 37.5 47.1 38.2C47.5 39 47.4 39.2 46.55 39.25H43.15C42.954 39.2694 42.7568 39.2267 42.5864 39.1281C42.4159 39.0294 42.2807 38.8796 42.2 38.7L41.3 37.2C41.0347 36.8086 40.8648 36.3605 40.8041 35.8916C40.7433 35.4227 40.7932 34.9461 40.95 34.5C41.1664 33.6317 41.1835 32.7258 41 31.85C40.8739 31.24 40.8848 30.6097 41.0318 30.0045C41.1788 29.3993 41.4582 28.8342 41.85 28.35C42.15 28 42.15 27.85 41.65 27.75C39.6054 27.3157 37.6233 26.627 35.75 25.7C35.7367 25.7 35.724 25.6947 35.7146 25.6853C35.7052 25.676 35.7 25.6632 35.7 25.65C34.1 25.05 33.8 25.15 33.35 26.8C32.95 28.2 32.55 29.6 32.25 31.05C31.9 32.65 32.3 34.15 32.8 35.65C33 36.25 33.6 36.2 34.05 36.35C35.05 36.65 35.9 37.05 36.3 38.1C36.65 38.9 36.6 39 35.75 39C34.9 39 34.05 38.95 33.15 39C32.3905 39.0137 31.6493 38.7667 31.05 38.3C28.65 36.7 27.95 34.25 27.75 31.6C27.65 29.95 26.75 28.65 25.7 27.4C25.5 27.15 25.3 27.05 25 27.25C23.9267 27.8418 22.8062 28.3435 21.65 28.75C19.2371 29.602 17.1198 31.1292 15.55 33.15C14.9638 33.8875 14.5842 34.7675 14.45 35.7C14.3 36.6 14.55 37 15.45 37.25C16.35 37.5 16.8 38 16.9 38.95C16.95 39.35 16.8 39.55 16.4 39.55H12.35C12.2174 39.5406 12.0891 39.4993 11.9759 39.4297C11.8628 39.36 11.7681 39.2641 11.7 39.15C11.0719 38.3724 10.7358 37.3995 10.75 36.4C10.7237 34.6724 10.8745 32.9468 11.2 31.25C11.2667 30.7418 11.4564 30.2576 11.7527 29.8394C12.0489 29.4212 12.4427 29.0815 12.9 28.85C15.85 27.45 17.4 24.8 18.8 22.05C19.1 21.5 18.85 21.4 18.35 21.45C16.9506 21.6442 15.6248 22.1952 14.5 23.05C13.0271 24.1244 11.6396 25.3113 10.35 26.6C8.9748 27.9968 7.15133 28.8643 5.19998 29.05C1.54998 29.25 -0.150021 27.2 -2.12286e-05 23.9C0.03351 22.7748 0.457802 21.6964 1.19998 20.85C1.45799 20.5155 1.80985 20.2655 2.21061 20.1319C2.61138 19.9983 3.04287 19.9872 3.44998 20.1C4.19998 20.3 4.39998 20.7 4.09998 21.45C3.94998 21.75 3.74998 22 3.59998 22.3C3.38428 22.6065 3.21574 22.9435 3.09998 23.3C2.54998 24.8 3.29998 25.85 4.84998 26C6.49998 26.15 7.84998 25.45 9.09998 24.45C10.6059 23.2441 11.9503 21.8493 13.1 20.3C13.9596 19.1687 15.042 18.2256 16.2804 17.529C17.5188 16.8325 18.8868 16.3971 20.3 16.25C21.45 16.1 22.45 15.6 23.55 15.3C25.6072 14.6728 27.7495 14.3692 29.9 14.4C30.896 14.4415 31.8883 14.2533 32.8 13.85C35.25 12.85 37.8 12.85 40.35 13.35C42.35 13.75 44.35 14.25 46.3 14.75C47.4605 14.9662 48.6537 14.9321 49.8 14.65C51.9943 14.0937 54.2389 13.7587 56.5 13.65C57.9812 13.5779 59.4576 13.8697 60.8 14.5C61.8 14.95 61.8 14.95 61.55 15.9Z" fill="black"/>
</g>
<defs>
<clipPath id="clip0">
<rect width="67" height="28" fill="white" transform="translate(0 13)"/>
</clipPath>
</defs>
</svg>
